<?xml version="1.0" encoding="UTF-8" standalone="no"?>
<!-- Created with Inkscape (http://www.inkscape.org/) -->

<svg
   width="221.53708"
   height="155.593"
   viewBox="0 0 58.615018 41.167317"
   version="1.1"
   id="svg5"
   inkscape:version="1.1.1 (3bf5ae0, 2021-09-20)"
   sodipodi:docname="logo.svg"
   xmlns:inkscape="http://www.inkscape.org/namespaces/inkscape"
   xmlns:sodipodi="http://sodipodi.sourceforge.net/DTD/sodipodi-0.dtd"
   xmlns="http://www.w3.org/2000/svg"
   xmlns:svg="http://www.w3.org/2000/svg">
  <sodipodi:namedview
     id="namedview7"
     pagecolor="#ffffff"
     bordercolor="#666666"
     borderopacity="1.0"
     inkscape:pageshadow="2"
     inkscape:pageopacity="0.0"
     inkscape:pagecheckerboard="0"
     inkscape:document-units="mm"
     showgrid="false"
     units="px"
     width="360px"
     showborder="false"
     inkscape:zoom="1.4627806"
     inkscape:cx="170.90738"
     inkscape:cy="20.167071"
     inkscape:window-width="1920"
     inkscape:window-height="1002"
     inkscape:window-x="0"
     inkscape:window-y="0"
     inkscape:window-maximized="1"
     inkscape:current-layer="g957" />
  <defs
     id="defs2" />
  <g
     inkscape:label="Layer 1"
     inkscape:groupmode="layer"
     id="layer1"
     transform="translate(-15.608887,-30.593554)">
    <g
       id="g957"
       transform="translate(1.2769596,-17.552821)">
      <path
         style="fill:#d0d0d0;fill-opacity:1;stroke-width:0.189747"
         d="m 68.030389,87.731905 c 0,-0.0394 0.149426,-0.188827 0.332058,-0.332058 0.30095,-0.236021 0.307662,-0.229309 0.07164,0.07164 -0.24788,0.316072 -0.403699,0.416586 -0.403699,0.260417 z m 0.758989,-0.758989 c 0,-0.0394 0.149426,-0.188827 0.332058,-0.332058 0.30095,-0.236021 0.307662,-0.229309 0.07164,0.07164 -0.24788,0.316072 -0.403699,0.416587 -0.403699,0.260417 z M 23.898381,74.426366 c 1.82e-4,-1.982858 0.0283,-2.768247 0.06248,-1.745306 0.03418,1.02294 0.03403,2.645279 -3.23e-4,3.605197 -0.03436,0.959918 -0.06233,0.122968 -0.06215,-1.859891 z"
         id="path969" />
      <path
         style="fill:#b9b9b9;fill-opacity:1;stroke-width:0.189747"
         d="m 20.301548,79.929036 c 4e-5,-4.800605 0.02466,-6.737287 0.05471,-4.303737 0.03005,2.433548 0.03002,6.361316 -7.3e-5,8.728373 -0.03009,2.367055 -0.05468,0.375969 -0.05464,-4.424636 z m 51.879076,7.732199 c -0.236021,-0.30095 -0.22931,-0.307661 0.07164,-0.07164 0.182632,0.14323 0.332057,0.292656 0.332057,0.332057 0,0.15617 -0.155818,0.05566 -0.403697,-0.260417 z m -0.758989,-0.758988 c -0.236021,-0.300951 -0.229309,-0.307662 0.07164,-0.07164 0.182632,0.14323 0.332058,0.292656 0.332058,0.332057 0,0.15617 -0.155819,0.05566 -0.403699,-0.260416 z m -0.758989,-0.758989 c -0.236021,-0.300951 -0.229309,-0.307662 0.07164,-0.07164 0.316072,0.24788 0.416586,0.403698 0.260417,0.403698 -0.0394,0 -0.188827,-0.149426 -0.332058,-0.332057 z"
         id="path967" />
      <path
         style="fill:#ffb400;fill-opacity:1;stroke-width:0.189747"
         d="M 14.331927,79.962361 V 71.362186 L 15.504026,69.5737 c 0.644654,-0.983668 1.227239,-1.83118 1.294634,-1.88336 0.06739,-0.05218 0.177667,-0.2443 0.245051,-0.426932 0.06738,-0.182631 0.189234,-0.329966 0.27078,-0.32741 0.08155,0.0026 0.767316,0.94126 1.523933,2.08601 l 1.375667,2.081364 v 8.729582 8.729581 h -2.941082 -2.941082 z m 55.192236,6.750138 c -0.236021,-0.30095 -0.22931,-0.307662 0.07164,-0.07164 0.182632,0.143231 0.332057,0.292657 0.332057,0.332058 0,0.15617 -0.155818,0.05566 -0.403698,-0.260417 z"
         id="path965" />
      <path
         style="fill:#8c8c8c;fill-opacity:1;stroke-width:0.189747"
         d="m 67.707648,89.180109 c 0.918284,-0.03486 2.36985,-0.03468 3.225703,3.79e-4 0.855855,0.03508 0.104532,0.0636 -1.669605,0.06338 -1.774136,-1.9e-4 -2.474379,-0.02892 -1.556098,-0.06377 z m 0.979787,-12.951144 c 0,-5.061507 0.02446,-7.132124 0.05435,-4.60137 0.02989,2.530753 0.02989,6.671987 0,9.20274 -0.02989,2.530754 -0.05435,0.460137 -0.05435,-4.60137 z"
         id="path963" />
      <path
         style="fill:#606060;fill-opacity:1;stroke-width:0.189747"
         d="m 65.94317,88.111399 c 0,-0.0394 0.149426,-0.188827 0.332058,-0.332057 0.30095,-0.236021 0.307661,-0.22931 0.07164,0.07164 -0.247881,0.316071 -0.403699,0.416586 -0.403699,0.260416 z m 2.519875,-0.06806 c 0.498865,-0.03922 1.267341,-0.03874 1.707725,0.0011 0.440386,0.03979 0.03222,0.07188 -0.907024,0.0713 -0.939249,-5.69e-4 -1.299563,-0.03314 -0.800701,-0.07235 z M 66.702159,87.35241 c 0,-0.0394 0.149426,-0.188826 0.332057,-0.332057 0.300951,-0.236021 0.307662,-0.22931 0.07164,0.07164 -0.24788,0.316071 -0.403698,0.416586 -0.403698,0.260416 z m 0.758989,-0.758988 c 0,-0.0394 0.149426,-0.188827 0.332057,-0.332058 0.300951,-0.236021 0.307662,-0.22931 0.07164,0.07164 -0.24788,0.316071 -0.403698,0.416586 -0.403698,0.260417 z m 0.758989,-0.758989 c 0,-0.0394 0.149425,-0.188827 0.332057,-0.332058 0.300951,-0.236021 0.307662,-0.22931 0.07164,0.07164 -0.24788,0.316071 -0.403698,0.416586 -0.403698,0.260417 z"
         id="path961" />
      <path
         style="fill:#ffffff;fill-opacity:1;stroke-width:0.189747"
         d="M 35.424676,84.285372 C 30.275752,81.524173 25.622202,79.024205 25.083453,78.72989 l -0.979544,-0.535121 -0.05161,-3.662325 c -0.03581,-2.540662 0.01489,-3.742462 0.165544,-3.923984 0.280268,-0.337702 0.454796,-0.329942 0.821253,0.03652 0.2476,0.247601 0.298821,0.851036 0.301991,3.557761 l 0.0038,3.259586 2.225712,1.206735 c 8.021401,4.349041 17.086775,9.134489 17.304036,9.134489 0.141395,0 1.033236,-0.417875 1.981868,-0.92861 4.086631,-2.200208 6.70608,-3.604867 12.599072,-6.756153 l 4.967656,-2.656461 9.49e-4,-3.361338 c 9.49e-4,-3.025104 0.03468,-3.379375 0.33793,-3.54167 0.213758,-0.114401 0.456576,-0.113393 0.664116,0.0028 0.291692,0.16324 0.326843,0.567749 0.324253,3.731419 -0.0015,1.951583 -0.06564,3.645847 -0.14231,3.765031 -0.07667,0.119184 -2.487528,1.474194 -5.357454,3.011131 -2.869927,1.536938 -5.561931,2.985419 -5.982233,3.218846 -1.616276,0.89765 -9.372488,5.032635 -9.425915,5.025136 -0.03094,-0.0043 -4.269007,-2.267058 -9.41793,-5.028256 z m 30.390976,4.545137 c -0.07968,-0.207655 0.363789,-0.783164 1.427228,-1.852157 l 1.542834,-1.550891 0.04927,-9.295491 0.04927,-9.295493 h 0.474368 0.474368 l 0.04275,9.288939 0.04275,9.288941 1.555001,1.563121 c 2.121628,2.132707 2.099191,2.154298 -2.238932,2.154298 -2.842343,0 -3.31943,-0.04204 -3.418905,-0.301267 z m 5.060946,-0.798707 c 0,-0.08318 -0.34301,-0.486178 -0.762243,-0.89555 l -0.762244,-0.74431 -0.895548,0.89555 -0.895548,0.895548 h 1.657791 c 0.911785,0 1.657792,-0.06806 1.657792,-0.151238 z M 41.181158,76.826627 c -1.878497,-1.014193 -4.098539,-2.215868 -4.933427,-2.670387 -0.834888,-0.454517 -3.225703,-1.742452 -5.312922,-2.862077 -2.08722,-1.119626 -4.264569,-2.288915 -4.838554,-2.598421 -0.573986,-0.309506 -2.865534,-1.528674 -5.09233,-2.709262 -2.226796,-1.180589 -4.095623,-2.268751 -4.152949,-2.418139 -0.142298,-0.370823 0.196733,-0.658328 1.750264,-1.48426 0.730527,-0.388384 1.755161,-0.941036 2.276966,-1.228116 0.521805,-0.28708 5.175356,-2.781821 10.341224,-5.543869 11.913802,-6.369983 12.35208,-6.606605 12.80272,-6.912041 0.205851,-0.139524 0.540139,-0.25368 0.742861,-0.25368 0.305808,0 3.221069,1.508226 10.267694,5.31205 2.679124,1.446212 3.946805,2.126003 10.24635,5.494577 7.928509,4.239636 7.725776,4.120484 7.648932,4.495523 -0.03248,0.15849 -1.126372,0.861506 -2.430884,1.562259 -1.304512,0.700754 -3.140316,1.686876 -4.079565,2.191382 -0.939249,0.504507 -2.348122,1.258965 -3.130829,1.676574 -0.782707,0.417609 -1.807342,0.971779 -2.276967,1.23149 -3.52949,1.951871 -16.082987,8.582939 -16.22968,8.572918 -0.1009,-0.0069 -1.720406,-0.842326 -3.598904,-1.856521 z"
         id="path959" />
    </g>
  </g>
</svg>
